# xmcd CD database file
# Copyright (C) 1997 Ti Kan
# 
# Track frame offsets:
#     150
#     15202
#     28095
#     41260
#     53175
#     64875
#     77187
#     92229
#     105115
#     118552
#     131977
#     147197
# 
# Disc length: 2131 seconds
# 
# Revision: 1
# Processed by: cddbd v1.4b41PL1 Copyright (c) Steve Scherf et al.
# Submitted via: DiscPlay 4.0.3
# 
DISCID=9708510c
DTITLE=Jimmie Rodgers - American Legends - Jimmie Rodgers
DYEAR=1900
DGENRE=
TTITLE0=Rock All Our Babies To Sleep
TTITLE1=Peach Pickin' Time Down In Georgia
TTITLE2=Pistol Packin' Papa
TTITLE3=Nobody Knows But Me
TTITLE4=Mississippi River Blues
TTITLE5=Blue Yodel #9 (Standin' On the Corner)
TTITLE6=A Drunkard's Child
TTITLE7=Blue Yodel #10
TTITLE8=Blue Yodel #11
TTITLE9=Moonlight and Skies
TTITLE10=Mother, the Queen Of My Heart
TTITLE11=Those Gamblers' Blues
EXTD=
EXTT0=
EXTT1=
EXTT2=
EXTT3=
EXTT4=
EXTT5=
EXTT6=
EXTT7=
EXTT8=
EXTT9=
EXTT10=
EXTT11=
PLAYORDER=
